toy_with_forces_states
version=1
nRows=20
nColumns=17
inDegrees=yes

# SIMM Motion File Header:
name toy_with_forces_states
datacolumns 17
datarows 20
otherdata 1
range 0.00000000 0.23625457
endheader
time	/jointset/ground_block/xRotation/value	/jointset/ground_block/xRotation/speed	/jointset/ground_block/yRotation/value	/jointset/ground_block/yRotation/speed	/jointset/ground_block/zRotation/value	/jointset/ground_block/zRotation/speed	/jointset/ground_block/xTranslation/value	/jointset/ground_block/xTranslation/speed	/jointset/ground_block/yTranslation/value	/jointset/ground_block/yTranslation/speed	/jointset/ground_block/zTranslation/value	/jointset/ground_block/zTranslation/speed	/jointset/pin1/pin1_rot/value	/jointset/pin1/pin1_rot/speed	/jointset/pin2/pin2_rot/value	/jointset/pin2/pin2_rot/speed
      0.00000000	     -0.00000000	      0.00000000	      0.00000000	      0.00000000	     40.00000000	      0.00000000	      0.00000000	      0.00000000	      1.10000000	      0.00000000	     -0.00000000	      0.00000000	     -0.00000000	      0.00000000	    -79.99999999	      0.00000000
      0.01000000	     -0.00000000	     -0.00000000	     -0.00000000	     -0.00000000	     39.99992583	     -0.02367082	      0.00000000	      0.00000000	      1.09968655	     -0.06290469	     -0.00000000	     -0.00000000	     -0.09461738	    -18.81863460	    -79.81061690	     37.68461086
      0.02459216	     -0.00000000	     -0.00000000	     -0.00000000	     -0.00000000	     39.99859546	     -0.19115083	      0.00000000	      0.00000000	      1.09807239	     -0.15980958	     -0.00000000	     -0.00000000	     -0.55688382	    -43.83334387	    -78.88342327	     88.04898940
      0.03918431	     -0.00000000	      0.00000000	     -0.00000000	      0.00000000	     39.99320127	     -0.59291534	      0.00000000	      0.00000000	      1.09496437	     -0.26859170	     -0.00000000	      0.00000000	     -1.34566230	    -63.08097482	    -77.29507794	    127.34778033
      0.05377647	      0.00000000	      0.00000000	      0.00000000	      0.00000000	     39.97986893	     -1.28554068	      0.00000000	      0.00000000	      1.09015422	     -0.39359502	      0.00000000	      0.00000000	     -2.35736160	    -74.04726239	    -75.24501467	    150.66560615
      0.06836862	      0.00000000	      0.00000000	      0.00000000	      0.00000000	     39.95417114	     -2.28737551	      0.00000000	      0.00000000	      1.08339087	     -0.53630598	      0.00000000	      0.00000000	     -3.45897856	    -75.25922296	    -72.99038516	    155.09319694
      0.08837995	      0.00000000	      0.00000000	      0.00000000	      0.00000000	     39.89087950	     -4.11614702	      0.00000000	      0.00000000	      1.07048360	     -0.75822081	      0.00000000	      0.00000000	     -4.85031230	    -60.84281275	    -70.08113441	    129.91791955
      0.10475283	      0.00000000	     -0.00000000	      0.00000000	     -0.00000000	     39.80918235	     -5.89308733	      0.00000000	      0.00000000	      1.05646026	     -0.95675797	      0.00000000	     -0.00000000	     -5.66578831	    -37.29871132	    -68.28678808	     86.38359730
      0.12112571	      0.00000000	      0.00000000	      0.00000000	      0.00000000	     39.69735084	     -7.77081053	      0.00000000	      0.00000000	      1.03910578	     -1.16410199	      0.00000000	      0.00000000	     -6.03430615	     -6.95007812	    -67.32608938	     29.44177729
      0.13495598	      0.00000000	     -0.00000000	      0.00000000	     -0.00000000	     39.57909687	     -9.31396980	      0.00000000	      0.00000000	      1.02177858	     -1.34161743	      0.00000000	     -0.00000000	     -5.94012742	     20.57798994	    -67.27793890	    -22.52804027
      0.14878624	     -0.00000000	     -0.00000000	     -0.00000000	     -0.00000000	     39.44038553	    -10.71361565	      0.00000000	      0.00000000	      1.00200338	     -1.51751297	     -0.00000000	     -0.00000000	     -5.47182086	     46.65639603	    -67.93712935	    -71.88556076
      0.16261651	     -0.00000000	     -0.00000000	     -0.00000000	     -0.00000000	     39.28381099	    -11.88459498	      0.00000000	      0.00000000	      0.97982747	     -1.68817474	     -0.00000000	     -0.00000000	     -4.66947750	     68.43973183	    -69.22866698	   -113.11027369
      0.17644678	     -0.00000000	     -0.00000000	     -0.00000000	     -0.00000000	     39.11300178	    -12.76385343	      0.00000000	      0.00000000	      0.95534865	     -1.84993503	     -0.00000000	     -0.00000000	     -3.60964490	     83.55071625	    -71.00671376	   -141.57372564
      0.19473024	     -0.00000000	     -0.00000000	     -0.00000000	     -0.00000000	     38.87270946	    -13.42499991	      0.00000000	      0.00000000	      0.91970979	     -2.04442505	     -0.00000000	     -0.00000000	     -1.99366074	     90.62760630	    -73.75809746	   -154.40521278
      0.21301370	     -0.00000000	     -0.00000000	     -0.00000000	     -0.00000000	     38.62551074	    -13.52909789	      0.00000000	      0.00000000	      0.88075402	     -2.21229184	     -0.00000000	     -0.00000000	     -0.39192381	     82.04277108	    -76.46717386	   -137.02734639
      0.21729684	     -0.00000000	     -0.00000000	     -0.00000000	     -0.00000000	     38.56765500	    -13.48241356	      0.00000000	      0.00000000	      0.87120219	     -2.24765738	     -0.00000000	     -0.00000000	     -0.04912087	     77.90304134	    -77.03706825	   -128.84125557
      0.23340667	     -0.00000000	      0.00000000	     -0.00000000	      0.00000000	     38.35303091	    -13.11855227	      0.00000000	      0.00000000	      0.83399422	     -2.36870687	     -0.00000000	      0.00000000	      1.04369204	     56.32438223	    -78.79344591	    -86.41165993
      0.23501765	     -0.00000000	      0.00000000	     -0.00000000	      0.00000000	     38.33193677	    -13.06905415	      0.00000000	      0.00000000	      0.83016923	     -2.37991177	     -0.00000000	      0.00000000	      1.13234761	     53.72852250	    -78.92856876	    -81.31893671
      0.23582314	     -0.00000000	      0.00000000	     -0.00000000	      0.00000000	     38.32141998	    -13.04361325	      0.00000000	      0.00000000	      0.82824999	     -2.38546291	     -0.00000000	     -0.00000000	      1.17509398	     52.40621432	    -78.99302790	    -78.72520215
      0.23625457	     -0.00000000	     -0.00000000	     -0.00000000	     -0.00000000	     38.31579562	    -13.02980626	      0.00000000	      0.00000000	      0.82722021	     -2.38842254	     -0.00000000	     -0.00000000	      1.19754929	     51.69154788	    -79.02668981	    -77.32348324
